<?xml version="1.0" encoding="UTF-8"?>
<svg width="110px" height="110px" viewBox="0 0 110 110" version="1.1" xmlns="http://www.w3.org/2000/svg" xmlns:xlink="http://www.w3.org/1999/xlink">
    <title>BG备份 14</title>
    <defs>
        <linearGradient x1="61.0568588%" y1="2.77555756e-15%" x2="61.0568588%" y2="100%" id="linearGradient-1">
            <stop stop-color="#49DCBB" offset="0%"></stop>
            <stop stop-color="#37D7B3" offset="100%"></stop>
        </linearGradient>
        <linearGradient x1="50%" y1="0%" x2="50%" y2="100%" id="linearGradient-2">
            <stop stop-color="#FFFFFF" offset="0%"></stop>
            <stop stop-color="#D3FFF5" offset="100%"></stop>
        </linearGradient>
        <path d="M1.36285807,0 C0.613286131,0 0,0.613200852 0,1.36266856 L0,35.1909155 C0,35.9403833 0.613286131,36.5535841 1.36285807,36.5535841 L25.6217317,36.5535841 C26.3713036,36.5535841 26.9845897,35.9403833 26.9845897,35.1909155 L26.9845897,1.36266856 C26.9845897,0.613200852 26.3713036,0 25.6217317,0 L1.36285807,0 Z M58.6454862,0 L34.3780948,0 C33.6285228,0 33.0152367,0.613200852 33.0152367,1.36266856 L33.0152367,16.0709723 C33.0152367,16.82044 33.6285228,17.4336409 34.3780948,17.4336409 L58.6369684,17.4336409 C59.3865403,17.4336409 59.9999141,16.82044 59.9999141,16.0709723 L59.9999141,1.36266856 C60.0083443,0.613200852 59.3950582,0 58.6454862,0 Z M25.6217317,42.5578424 L1.36285807,42.5578424 C0.613286131,42.5578424 0,43.1710433 0,43.920511 L0,58.6288148 C0,59.3782825 0.613286131,59.9914833 1.36285807,59.9914833 L25.6217317,59.9914833 C26.3713036,59.9914833 26.9845897,59.3782825 26.9845897,58.6288148 L26.9845897,43.920511 C26.9845897,43.1710433 26.3713036,42.5578424 25.6217317,42.5578424 L25.6217317,42.5578424 Z M58.6454862,23.4378992 L34.3780948,23.4378992 C33.6285228,23.4378992 33.0152367,24.0511001 33.0152367,24.8005678 L33.0152367,58.6373314 C33.0152367,59.3867991 33.6285228,60 34.3780948,60 L58.6369684,60 C59.3865403,60 59.9999141,59.3867991 59.9999141,58.6373314 L59.9999141,24.8005678 C60.0083443,24.0511001 59.3950582,23.4378992 58.6454862,23.4378992 Z" id="path-3"></path>
        <filter x="-10.0%" y="-10.0%" width="120.0%" height="120.0%" filterUnits="objectBoundingBox" id="filter-4">
            <feOffset dx="0" dy="0" in="SourceAlpha" result="shadowOffsetOuter1"></feOffset>
            <feGaussianBlur stdDeviation="2" in="shadowOffsetOuter1" result="shadowBlurOuter1"></feGaussianBlur>
            <feColorMatrix values="0 0 0 0 0.00363962093   0 0 0 0 0.243357835   0 0 0 0 0.471768587  0 0 0 0.0762862626 0" type="matrix" in="shadowBlurOuter1"></feColorMatrix>
        </filter>
    </defs>
    <g id="#-首页-✅" stroke="none" stroke-width="1" fill="none" fill-rule="evenodd">
        <g id="首页" transform="translate(-86.000000, -1246.000000)">
            <g id="编组-4" transform="translate(24.000000, 458.000000)">
                <g id="编组备份-9" transform="translate(0.000000, 742.000000)">
                    <g id="编组-12" transform="translate(62.000000, 46.000000)">
                        <path d="M25.3918148,3.42490765 C35.2612099,1.14163588 45.1306049,0 55,0 C64.8693942,0 74.7387883,1.14163568 84.6081825,3.42490703 L84.6081828,3.42490571 C95.5251197,5.95052469 104.049473,14.474878 106.575092,25.3918148 C108.858364,35.2612099 110,45.1306049 110,55 C110,64.8693942 108.858364,74.7387883 106.575093,84.6081825 L106.575094,84.6081828 C104.049475,95.5251197 95.525122,104.049473 84.6081852,106.575092 C74.7387901,108.858364 64.8693951,110 55,110 C45.1306058,110 35.2612117,108.858364 25.3918175,106.575093 L25.3918172,106.575094 C14.4748803,104.049475 5.95052683,95.525122 3.42490765,84.6081852 C1.14163588,74.7387901 0,64.8693951 0,55 C0,45.1306058 1.14163568,35.2612117 3.42490703,25.3918175 L3.42490571,25.3918172 C5.95052469,14.4748803 14.474878,5.95052683 25.3918148,3.42490765 Z" id="BG备份-14" fill="url(#linearGradient-1)"></path>
                        <g id="编组" transform="translate(25.000000, 25.000000)" fill-rule="nonzero">
                            <g id="形状">
                                <use fill="black" fill-opacity="1" filter="url(#filter-4)" xlink:href="#path-3"></use>
                                <use fill="url(#linearGradient-2)" xlink:href="#path-3"></use>
                            </g>
                        </g>
                    </g>
                </g>
            </g>
        </g>
    </g>
</svg>