<?xml version="1.0" encoding="UTF-8"?>
<svg width="110px" height="110px" viewBox="0 0 110 110" version="1.1" xmlns="http://www.w3.org/2000/svg" xmlns:xlink="http://www.w3.org/1999/xlink">
    <title>BG备份 14</title>
    <defs>
        <linearGradient x1="61.0568588%" y1="100%" x2="61.0568588%" y2="0%" id="linearGradient-1">
            <stop stop-color="#FF5973" offset="0%"></stop>
            <stop stop-color="#FF667E" offset="100%"></stop>
        </linearGradient>
        <linearGradient x1="50%" y1="0%" x2="50%" y2="100%" id="linearGradient-2">
            <stop stop-color="#FFFFFF" offset="0%"></stop>
            <stop stop-color="#FFDAE0" offset="100%"></stop>
        </linearGradient>
        <path d="M22.4002171,48.9235808 C22.4002171,53.4628821 19.9672347,55.7325328 15.1012699,55.7325328 L3.34287405,55.7325328 C1.49665569,55.7325328 4.3255248e-15,54.2358771 0,52.3896587 L0,3.34287405 C-6.7018575e-16,1.49665569 1.49665569,1.22732323e-15 3.34287405,0 L19.057343,0 C20.9035614,1.049444e-16 22.4002171,1.49665569 22.4002171,3.34287405 L22.4002171,48.9235808 L22.4002171,48.9235808 Z M27.708477,0 L53.2387715,0 C55.0849898,-3.3914481e-16 56.5816455,1.49665569 56.5816455,3.34287405 L56.5816455,32.5316594 L56.5816455,32.5316594 C56.5816455,37.0709607 54.4842469,39.4246725 50.2894497,39.5927948 L32.6713014,39.5927948 L32.6713014,48.419214 C32.6713014,49.5960699 33.0907811,50.1844978 33.9297406,50.1844978 L55.1618963,50.1844978 C56.0850055,50.1844978 56.8333333,50.9328257 56.8333333,51.8559348 L56.8333333,56.078563 C56.8333333,57.0016722 56.0850055,57.75 55.1618963,57.75 L30.6577988,57.75 L30.6577988,57.75 C26.6307934,57.5818777 24.5333948,54.9759825 24.365603,49.9323144 L24.365603,3.34287405 C24.365603,1.49665569 25.8622586,4.78003691e-15 27.708477,0 Z M14.3462064,6.48111354 L8.30569847,6.48111354 L8.30569847,47.5870087 L12.8360795,47.5870087 C14.0106227,47.755131 14.5139983,47.3348253 14.3462064,46.3260917 L14.3462064,6.48111354 Z M36.9981114,6.98548035 L32.971106,6.98548035 L32.971106,31.6994541 L36.9981114,31.6994541 L36.9981114,6.98548035 Z M49.0791273,6.98548035 L45.052122,6.98548035 L45.052122,31.9516376 L48.3240638,31.9516376 C48.8274395,31.9516376 49.0791273,31.615393 49.0791273,30.9429039 L49.0791273,6.98548035 Z" id="path-3"></path>
        <filter x="-10.6%" y="-10.4%" width="121.1%" height="120.8%" filterUnits="objectBoundingBox" id="filter-4">
            <feOffset dx="0" dy="0" in="SourceAlpha" result="shadowOffsetOuter1"></feOffset>
            <feGaussianBlur stdDeviation="2" in="shadowOffsetOuter1" result="shadowBlurOuter1"></feGaussianBlur>
            <feColorMatrix values="0 0 0 0 0.00363962093   0 0 0 0 0.243357835   0 0 0 0 0.471768587  0 0 0 0.0762862626 0" type="matrix" in="shadowBlurOuter1"></feColorMatrix>
        </filter>
    </defs>
    <g id="#-首页-✅" stroke="none" stroke-width="1" fill="none" fill-rule="evenodd">
        <g id="首页" transform="translate(-554.000000, -1012.000000)">
            <g id="编组-4" transform="translate(24.000000, 458.000000)">
                <g id="编组备份-10" transform="translate(468.000000, 518.000000)">
                    <g id="编组-15" transform="translate(62.000000, 36.000000)">
                        <path d="M25.3918148,3.42490765 C35.2612099,1.14163588 45.1306049,0 55,0 C64.8693942,0 74.7387883,1.14163568 84.6081825,3.42490703 L84.6081828,3.42490571 C95.5251197,5.95052469 104.049473,14.474878 106.575092,25.3918148 C108.858364,35.2612099 110,45.1306049 110,55 C110,64.8693942 108.858364,74.7387883 106.575093,84.6081825 L106.575094,84.6081828 C104.049475,95.5251197 95.525122,104.049473 84.6081852,106.575092 C74.7387901,108.858364 64.8693951,110 55,110 C45.1306058,110 35.2612117,108.858364 25.3918175,106.575093 L25.3918172,106.575094 C14.4748803,104.049475 5.95052683,95.525122 3.42490765,84.6081852 C1.14163588,74.7387901 0,64.8693951 0,55 C0,45.1306058 1.14163568,35.2612117 3.42490703,25.3918175 L3.42490571,25.3918172 C5.95052469,14.4748803 14.474878,5.95052683 25.3918148,3.42490765 Z" id="BG备份-14" fill="url(#linearGradient-1)"></path>
                        <g id="吧" transform="translate(26.583333, 27.500000)" fill-rule="nonzero">
                            <g id="形状">
                                <use fill="black" fill-opacity="1" filter="url(#filter-4)" xlink:href="#path-3"></use>
                                <use fill="url(#linearGradient-2)" xlink:href="#path-3"></use>
                            </g>
                        </g>
                    </g>
                </g>
            </g>
        </g>
    </g>
</svg>