<?xml version="1.0" encoding="UTF-8"?>
<svg width="110px" height="110px" viewBox="0 0 110 110" version="1.1" xmlns="http://www.w3.org/2000/svg" xmlns:xlink="http://www.w3.org/1999/xlink">
    <title>BG备份 14</title>
    <defs>
        <linearGradient x1="61.0568588%" y1="100%" x2="61.0568588%" y2="0%" id="linearGradient-1">
            <stop stop-color="#FE8B2F" offset="0%"></stop>
            <stop stop-color="#FFA359" offset="100%"></stop>
        </linearGradient>
        <linearGradient x1="50%" y1="0%" x2="50%" y2="100%" id="linearGradient-2">
            <stop stop-color="#FFFFFF" offset="0%"></stop>
            <stop stop-color="#FFE8D6" offset="100%"></stop>
        </linearGradient>
        <path d="M12.6688034,52.6428572 C14.9064103,52.6428572 16.6645299,50.8880952 16.6645299,48.6547619 L16.6645299,32.7023809 C16.6645299,30.4690476 14.9064103,28.7142857 12.6688034,28.7142857 L3.99572647,28.7142857 C1.75811961,28.7142857 0,30.4690477 0,32.7023809 L0,48.6547619 C0,50.8880953 1.75811968,52.6428572 3.99572647,52.6428572 L12.6688034,52.6428572 Z M25.4551282,52.6428572 L35.0448718,52.6428572 C37.2824787,52.6428572 39.0405983,50.8880952 39.0405983,48.6547619 L39.0405983,3.98809521 C39.0405983,1.75476186 37.2824786,0 35.0448718,0 L25.4551282,0 C23.2175213,0 21.4594017,1.75476193 21.4594017,3.98809521 L21.4594017,48.6547619 C21.4594017,50.8880953 23.2175214,52.6428572 25.4551282,52.6428572 Z M56.5042735,15.9523809 L47.8311966,15.9523809 C45.5935897,15.9523809 43.8354701,17.7071429 43.8354701,19.9404762 L43.8354701,48.6547619 C43.8354701,50.8880953 45.5935897,52.6428572 47.8311966,52.6428572 L56.5042735,52.6428572 C58.7418804,52.6428572 60.5,50.8880952 60.5,48.6547619 L60.5,19.9404762 C60.5,17.7071429 58.7418803,15.9523809 56.5042735,15.9523809 Z M58.1025641,56.6309524 L3.31410256,56.6309524 C2.03547006,56.6309524 0.916666667,57.747619 0.916666667,59.0238095 C0.916666667,60.3 2.03547006,61.4166667 3.31410256,61.4166667 L58.1025641,61.4166667 C59.3811966,61.4166667 60.5,60.3 60.5,59.0238095 C60.5,57.747619 59.3811966,56.6309524 58.1025641,56.6309524 Z" id="path-3"></path>
        <filter x="-9.9%" y="-9.8%" width="119.8%" height="119.5%" filterUnits="objectBoundingBox" id="filter-4">
            <feOffset dx="0" dy="0" in="SourceAlpha" result="shadowOffsetOuter1"></feOffset>
            <feGaussianBlur stdDeviation="2" in="shadowOffsetOuter1" result="shadowBlurOuter1"></feGaussianBlur>
            <feColorMatrix values="0 0 0 0 0.00363962093   0 0 0 0 0.243357835   0 0 0 0 0.471768587  0 0 0 0.0762862626 0" type="matrix" in="shadowBlurOuter1"></feColorMatrix>
        </filter>
    </defs>
    <g id="#-首页-✅" stroke="none" stroke-width="1" fill="none" fill-rule="evenodd">
        <g id="首页" transform="translate(-554.000000, -564.000000)">
            <g id="编组-4" transform="translate(24.000000, 458.000000)">
                <g id="编组备份-2" transform="translate(468.000000, 70.000000)">
                    <g id="编组-8" transform="translate(62.000000, 36.000000)">
                        <path d="M25.3918148,3.42490765 C35.2612099,1.14163588 45.1306049,0 55,0 C64.8693942,0 74.7387883,1.14163568 84.6081825,3.42490703 L84.6081828,3.42490571 C95.5251197,5.95052469 104.049473,14.474878 106.575092,25.3918148 C108.858364,35.2612099 110,45.1306049 110,55 C110,64.8693942 108.858364,74.7387883 106.575093,84.6081825 L106.575094,84.6081828 C104.049475,95.5251197 95.525122,104.049473 84.6081852,106.575092 C74.7387901,108.858364 64.8693951,110 55,110 C45.1306058,110 35.2612117,108.858364 25.3918175,106.575093 L25.3918172,106.575094 C14.4748803,104.049475 5.95052683,95.525122 3.42490765,84.6081852 C1.14163588,74.7387901 0,64.8693951 0,55 C0,45.1306058 1.14163568,35.2612117 3.42490703,25.3918175 L3.42490571,25.3918172 C5.95052469,14.4748803 14.474878,5.95052683 25.3918148,3.42490765 Z" id="BG备份-14" fill="url(#linearGradient-1)"></path>
                        <g id="编组" transform="translate(24.750000, 24.750000)" fill-rule="nonzero">
                            <g id="形状">
                                <use fill="black" fill-opacity="1" filter="url(#filter-4)" xlink:href="#path-3"></use>
                                <use fill="url(#linearGradient-2)" xlink:href="#path-3"></use>
                            </g>
                        </g>
                    </g>
                </g>
            </g>
        </g>
    </g>
</svg>