<?xml version="1.0" encoding="UTF-8"?>
<svg width="110px" height="110px" viewBox="0 0 110 110" version="1.1" xmlns="http://www.w3.org/2000/svg" xmlns:xlink="http://www.w3.org/1999/xlink">
    <title>BG备份 14</title>
    <defs>
        <linearGradient x1="61.0568588%" y1="100%" x2="61.0568588%" y2="0%" id="linearGradient-1">
            <stop stop-color="#2F99FE" offset="0%"></stop>
            <stop stop-color="#49A6FF" offset="100%"></stop>
        </linearGradient>
        <linearGradient x1="50%" y1="0%" x2="50%" y2="100%" id="linearGradient-2">
            <stop stop-color="#FFFFFF" offset="0%"></stop>
            <stop stop-color="#E0F0FF" offset="100%"></stop>
        </linearGradient>
        <path d="M30.5,0 C47.3341413,0 61,12.2331747 61,27.3276683 C60.9788781,40.3694765 50.7558864,51.2549286 37.1111496,53.9711081 C36.5408587,54.5931339 35.949446,55.5261727 35.3369114,56.4384772 C33.8795014,58.657036 32.3798476,60.9585316 30.3310249,61 L30.2676593,61 C28.1765928,61 26.5290859,58.6985044 24.9449446,56.4592114 C24.1845568,55.3810333 23.4030471,54.3235894 22.7271468,53.7222978 C21.8400277,53.5149558 20.9951524,53.2661455 20.150277,52.996601 C20.1079575,52.9817145 20.0657137,52.9678917 20.0235457,52.9551326 C8.34314404,49.1193066 0,39.1046907 0,27.3276683 C0,12.2331747 13.6447368,0 30.5,0 Z M30.9485294,22.4264706 C28.2236539,22.4264706 26.0147059,24.6354186 26.0147059,27.3602941 C26.0147059,30.0851696 28.2236539,32.2941176 30.9485294,32.2941176 C33.6734049,32.2941176 35.8823529,30.0851696 35.8823529,27.3602941 C35.8823529,24.6354186 33.6734049,22.4264706 30.9485294,22.4264706 Z M13.9044118,22.4264706 C11.1795363,22.4264706 8.97058824,24.6354186 8.97058824,27.3602941 C8.97058824,30.0851696 11.1795363,32.2941176 13.9044118,32.2941176 C16.6292873,32.2941176 18.8382353,30.0851696 18.8382353,27.3602941 C18.8382353,24.6354186 16.6292873,22.4264706 13.9044118,22.4264706 Z M47.9926471,22.4264706 C45.2677716,22.4264706 43.0588235,24.6354186 43.0588235,27.3602941 C43.0588235,30.0851696 45.2677716,32.2941176 47.9926471,32.2941176 C50.7175226,32.2941176 52.9264706,30.0851696 52.9264706,27.3602941 C52.9264706,24.6354186 50.7175226,22.4264706 47.9926471,22.4264706 Z" id="path-3"></path>
        <filter x="-9.8%" y="-9.8%" width="119.7%" height="119.7%" filterUnits="objectBoundingBox" id="filter-4">
            <feOffset dx="0" dy="0" in="SourceAlpha" result="shadowOffsetOuter1"></feOffset>
            <feGaussianBlur stdDeviation="2" in="shadowOffsetOuter1" result="shadowBlurOuter1"></feGaussianBlur>
            <feColorMatrix values="0 0 0 0 0.00363962093   0 0 0 0 0.243357835   0 0 0 0 0.471768587  0 0 0 0.0762862626 0" type="matrix" in="shadowBlurOuter1"></feColorMatrix>
        </filter>
    </defs>
    <g id="#-首页-✅" stroke="none" stroke-width="1" fill="none" fill-rule="evenodd">
        <g id="首页" transform="translate(-320.000000, -564.000000)">
            <g id="编组-4" transform="translate(24.000000, 458.000000)">
                <g id="编组备份" transform="translate(234.000000, 70.000000)">
                    <g id="编组-9" transform="translate(62.000000, 36.000000)">
                        <path d="M25.3918148,3.42490765 C35.2612099,1.14163588 45.1306049,0 55,0 C64.8693942,0 74.7387883,1.14163568 84.6081825,3.42490703 L84.6081828,3.42490571 C95.5251197,5.95052469 104.049473,14.474878 106.575092,25.3918148 C108.858364,35.2612099 110,45.1306049 110,55 C110,64.8693942 108.858364,74.7387883 106.575093,84.6081825 L106.575094,84.6081828 C104.049475,95.5251197 95.525122,104.049473 84.6081852,106.575092 C74.7387901,108.858364 64.8693951,110 55,110 C45.1306058,110 35.2612117,108.858364 25.3918175,106.575093 L25.3918172,106.575094 C14.4748803,104.049475 5.95052683,95.525122 3.42490765,84.6081852 C1.14163588,74.7387901 0,64.8693951 0,55 C0,45.1306058 1.14163568,35.2612117 3.42490703,25.3918175 L3.42490571,25.3918172 C5.95052469,14.4748803 14.474878,5.95052683 25.3918148,3.42490765 Z" id="BG备份-14" fill="url(#linearGradient-1)"></path>
                        <g id="编组" transform="translate(25.000000, 24.000000)" fill-rule="nonzero">
                            <g id="形状结合">
                                <use fill="black" fill-opacity="1" filter="url(#filter-4)" xlink:href="#path-3"></use>
                                <use fill="url(#linearGradient-2)" xlink:href="#path-3"></use>
                            </g>
                        </g>
                    </g>
                </g>
            </g>
        </g>
    </g>
</svg>