<?xml version="1.0" encoding="UTF-8"?>
<svg width="110px" height="110px" viewBox="0 0 110 110" version="1.1" xmlns="http://www.w3.org/2000/svg" xmlns:xlink="http://www.w3.org/1999/xlink">
    <title>BG备份 14</title>
    <defs>
        <linearGradient x1="61.0568588%" y1="100%" x2="61.0568588%" y2="0%" id="linearGradient-1">
            <stop stop-color="#2F99FE" offset="0%"></stop>
            <stop stop-color="#49A6FF" offset="100%"></stop>
        </linearGradient>
        <linearGradient x1="50%" y1="0%" x2="50%" y2="100%" id="linearGradient-2">
            <stop stop-color="#FFFFFF" offset="0%"></stop>
            <stop stop-color="#E0F0FF" offset="100%"></stop>
        </linearGradient>
        <path d="M31.3577274,1.2954408 C31.9291711,2.55862927 31.6258142,3.58871705 30.4476566,4.38570412 L8.35574084,15.431662 C7.72945562,15.7448046 7.47560337,16.5063613 7.78874598,17.1326465 C8.00350779,17.5621702 8.44251369,17.8334907 8.92273569,17.8334907 L49.133741,17.8334907 C49.5095163,17.8334907 49.8141423,17.5288647 49.8141423,17.1530894 C49.8141423,16.8935332 49.6669299,16.6597018 49.4398838,16.5454197 L49.351131,16.508351 L34.3988164,11.4667972 C33.4091583,10.9071124 33.1253439,10.007423 33.5473729,8.76772898 C33.969402,7.52803495 34.7987846,7.06995013 36.0355208,7.39347451 L53.2438807,13.0926329 L54.3194377,13.4488417 C55.8201334,13.9458503 56.8333333,15.3487277 56.8333333,16.9295835 L56.8333333,49.8022407 L56.8333333,49.8022407 C56.8333333,51.6863829 56.0848608,53.4933555 54.7525711,54.8256452 C53.4202814,56.1579349 51.6133088,56.9064074 49.7291667,56.9064074 L7.10416668,56.9064074 C3.18064376,56.9064074 0,53.7257637 0,49.8022407 L0,16.547532 L0,16.547532 C1.1621849e-15,15.1587011 0.784675385,13.8890697 2.0268835,13.2679656 L6.46378676,11.049514 L28.0229992,0.27728842 C29.6747077,-0.307131804 30.7862837,0.0322523217 31.3577274,1.2954408 Z M47.3093955,44.9897408 L26.0239379,44.9897408 C24.813994,44.9897408 23.8333333,45.9753408 23.8333333,47.1897408 C23.8333333,48.4041408 24.813994,49.3897408 26.0239379,49.3897408 L26.0239379,49.3897408 L47.3093955,49.3897408 C48.5193394,49.3897408 49.5,48.4041408 49.5,47.1897408 C49.5,45.9753408 48.5193394,44.9897408 47.3093955,44.9897408 L47.3093955,44.9897408 Z M47.3800909,36.7397408 L35.1199091,36.7397408 C33.9490127,36.7397408 33,37.7253408 33,38.9397408 C33,40.1541408 33.9490127,41.1397408 35.1199091,41.1397408 L35.1199091,41.1397408 L47.3800909,41.1397408 C48.551694,41.1397408 49.5,40.1541408 49.5,38.9397408 C49.5,37.7253408 48.5509873,36.7397408 47.3800909,36.7397408 L47.3800909,36.7397408 Z" id="path-3"></path>
        <filter x="-10.6%" y="-10.5%" width="121.1%" height="121.1%" filterUnits="objectBoundingBox" id="filter-4">
            <feOffset dx="0" dy="0" in="SourceAlpha" result="shadowOffsetOuter1"></feOffset>
            <feGaussianBlur stdDeviation="2" in="shadowOffsetOuter1" result="shadowBlurOuter1"></feGaussianBlur>
            <feColorMatrix values="0 0 0 0 0.00363962093   0 0 0 0 0.243357835   0 0 0 0 0.471768587  0 0 0 0.0762862626 0" type="matrix" in="shadowBlurOuter1"></feColorMatrix>
        </filter>
    </defs>
    <g id="#-首页-✅" stroke="none" stroke-width="1" fill="none" fill-rule="evenodd">
        <g id="首页" transform="translate(-554.000000, -788.000000)">
            <g id="编组-4" transform="translate(24.000000, 458.000000)">
                <g id="编组备份-13" transform="translate(468.000000, 294.000000)">
                    <g id="编组-13" transform="translate(62.000000, 36.000000)">
                        <path d="M25.3918148,3.42490765 C35.2612099,1.14163588 45.1306049,0 55,0 C64.8693942,0 74.7387883,1.14163568 84.6081825,3.42490703 L84.6081828,3.42490571 C95.5251197,5.95052469 104.049473,14.474878 106.575092,25.3918148 C108.858364,35.2612099 110,45.1306049 110,55 C110,64.8693942 108.858364,74.7387883 106.575093,84.6081825 L106.575094,84.6081828 C104.049475,95.5251197 95.525122,104.049473 84.6081852,106.575092 C74.7387901,108.858364 64.8693951,110 55,110 C45.1306058,110 35.2612117,108.858364 25.3918175,106.575093 L25.3918172,106.575094 C14.4748803,104.049475 5.95052683,95.525122 3.42490765,84.6081852 C1.14163588,74.7387901 0,64.8693951 0,55 C0,45.1306058 1.14163568,35.2612117 3.42490703,25.3918175 L3.42490571,25.3918172 C5.95052469,14.4748803 14.474878,5.95052683 25.3918148,3.42490765 Z" id="BG备份-14" fill="url(#linearGradient-1)"></path>
                        <g id="编组" transform="translate(26.583333, 26.510259)" fill-rule="nonzero">
                            <g id="形状结合">
                                <use fill="black" fill-opacity="1" filter="url(#filter-4)" xlink:href="#path-3"></use>
                                <use fill="url(#linearGradient-2)" xlink:href="#path-3"></use>
                            </g>
                        </g>
                    </g>
                </g>
            </g>
        </g>
    </g>
</svg>