<?xml version="1.0" encoding="UTF-8"?>
<svg width="110px" height="110px" viewBox="0 0 110 110" version="1.1" xmlns="http://www.w3.org/2000/svg" xmlns:xlink="http://www.w3.org/1999/xlink">
    <title>BG备份 14</title>
    <defs>
        <linearGradient x1="61.0568588%" y1="100%" x2="61.0568588%" y2="0%" id="linearGradient-1">
            <stop stop-color="#FE8B2F" offset="0%"></stop>
            <stop stop-color="#FFA359" offset="100%"></stop>
        </linearGradient>
        <linearGradient x1="50%" y1="0%" x2="50%" y2="100%" id="linearGradient-2">
            <stop stop-color="#FFFFFF" offset="0%"></stop>
            <stop stop-color="#FFE8D6" offset="100%"></stop>
        </linearGradient>
        <path d="M44.1748619,0 C47.5048981,0 50.636936,1.77393333 52.3485204,4.6288 L58.3529987,14.6344 L58.3693159,14.6625541 C58.3892285,14.6967957 58.4082436,14.7316237 58.4263288,14.7670059 L58.3529987,14.6344 C58.3928487,14.700722 58.4289017,14.7686284 58.4611576,14.8378196 C58.4725883,14.8627968 58.4838429,14.8881583 58.4946266,14.9137667 C58.5053569,14.9388006 58.5152504,14.9635827 58.5246748,14.9884969 C58.5342254,15.0142189 58.5436159,15.0405319 58.5525142,15.0670707 C58.60586,15.2256415 58.6403885,15.3886827 58.656359,15.5531764 C58.6581419,15.5764547 58.6600257,15.5998942 58.6615392,15.6234346 C58.6637704,15.6499769 58.6650182,15.6767257 58.6657783,15.7034868 C58.6658291,15.7243366 58.6661291,15.7454666 58.6661291,15.7666667 L58.6661291,49.1333333 C58.6661291,54.3898667 54.3893683,58.6666667 49.1328832,58.6666667 L9.53324599,58.6666667 C4.27676081,58.6666667 0,54.3898667 0,49.1333333 L0,15.7666667 L0.00114429425,15.6964565 C0.00174527872,15.6777207 0.0025856488,15.6589915 0.00366536149,15.6402735 L0,15.7666667 C0,15.5442555 0.032994283,15.3295587 0.0943557299,15.1272033 C0.0961677885,15.1237712 0.0973037574,15.1200705 0.098449725,15.1163722 L0.0943557299,15.1272033 C0.111788597,15.0697138 0.131511079,15.0132205 0.153417071,14.9578295 C0.155095074,14.9558664 0.156168193,14.9531698 0.157246857,14.9504749 C0.173048369,14.9081901 0.194433256,14.859436 0.217495365,14.8116434 C0.222850972,14.8025506 0.227765368,14.7925561 0.232760066,14.7825906 C0.262572516,14.7211761 0.29570005,14.6621319 0.331388381,14.6048487 L6.31760878,4.6288 C8.02992643,1.77393333 11.1626977,0 14.4920006,0 L44.1748619,0 Z M54.2661695,17.9666667 L4.39995969,17.9666667 L4.39995969,49.1333333 C4.39995969,51.9632667 6.70333858,54.2666667 9.53324599,54.2666667 L49.1328832,54.2666667 C51.9627906,54.2666667 54.2661695,51.9632667 54.2661695,49.1333333 L54.2661695,17.9666667 Z M49.882343,30.4648667 C50.7418017,31.3243333 50.7418017,32.7162 49.882343,33.5756667 L39.3290396,44.1276 C38.9627571,44.4949112 38.4797874,44.7190146 37.9671245,44.7638581 L37.7736539,44.7722012 L37.7736539,44.7722012 C37.2104591,44.7722012 36.6479975,44.5573333 36.2182682,44.1276 L30.4623876,38.3709333 C29.6036621,37.5114667 29.6036621,36.1196 30.4631209,35.2601333 C31.3225797,34.4006667 32.7144336,34.4006667 33.5738924,35.2601333 L37.774,39.461 L46.7715715,30.4648667 C47.6310302,29.6054 49.0228842,29.6054 49.882343,30.4648667 Z M18.4798307,39.6799333 C19.6949529,39.6799333 20.6798105,40.6655333 20.6798105,41.8799333 C20.6798105,43.0943333 19.6956862,44.0799333 18.4798307,44.0799333 L10.3399053,44.0799333 C9.12478306,44.0799333 8.13992542,43.0943333 8.13992542,41.8799333 C8.13992542,40.6655333 9.12478306,39.6799333 10.3399053,39.6799333 L18.4798307,39.6799333 Z M22.5497934,30.1825333 C23.7649156,30.1825333 24.7497732,31.1681333 24.7497732,32.3825333 C24.7497732,33.5969333 23.7649156,34.5825333 22.5497934,34.5825333 L10.3399053,34.5825333 C9.12478306,34.5825333 8.13992542,33.5969333 8.13992542,32.3825333 C8.13992542,31.1681333 9.12478306,30.1825333 10.3399053,30.1825333 L22.5497934,30.1825333 Z" id="path-3"></path>
        <filter x="-10.2%" y="-10.2%" width="120.5%" height="120.5%" filterUnits="objectBoundingBox" id="filter-4">
            <feOffset dx="0" dy="0" in="SourceAlpha" result="shadowOffsetOuter1"></feOffset>
            <feGaussianBlur stdDeviation="2" in="shadowOffsetOuter1" result="shadowBlurOuter1"></feGaussianBlur>
            <feColorMatrix values="0 0 0 0 0.00363962093   0 0 0 0 0.243357835   0 0 0 0 0.471768587  0 0 0 0.0762862626 0" type="matrix" in="shadowBlurOuter1"></feColorMatrix>
        </filter>
    </defs>
    <g id="#-首页-✅" stroke="none" stroke-width="1" fill="none" fill-rule="evenodd">
        <g id="首页" transform="translate(-86.000000, -1012.000000)">
            <g id="编组-4" transform="translate(24.000000, 458.000000)">
                <g id="编组备份-8" transform="translate(0.000000, 518.000000)">
                    <g id="编组-14" transform="translate(62.000000, 36.000000)">
                        <path d="M25.3918148,3.42490765 C35.2612099,1.14163588 45.1306049,0 55,0 C64.8693942,0 74.7387883,1.14163568 84.6081825,3.42490703 L84.6081828,3.42490571 C95.5251197,5.95052469 104.049473,14.474878 106.575092,25.3918148 C108.858364,35.2612099 110,45.1306049 110,55 C110,64.8693942 108.858364,74.7387883 106.575093,84.6081825 L106.575094,84.6081828 C104.049475,95.5251197 95.525122,104.049473 84.6081852,106.575092 C74.7387901,108.858364 64.8693951,110 55,110 C45.1306058,110 35.2612117,108.858364 25.3918175,106.575093 L25.3918172,106.575094 C14.4748803,104.049475 5.95052683,95.525122 3.42490765,84.6081852 C1.14163588,74.7387901 0,64.8693951 0,55 C0,45.1306058 1.14163568,35.2612117 3.42490703,25.3918175 L3.42490571,25.3918172 C5.95052469,14.4748803 14.474878,5.95052683 25.3918148,3.42490765 Z" id="BG备份-14" fill="url(#linearGradient-1)"></path>
                        <g id="编组" transform="translate(25.666667, 25.666667)" fill-rule="nonzero">
                            <g id="形状结合">
                                <use fill="black" fill-opacity="1" filter="url(#filter-4)" xlink:href="#path-3"></use>
                                <use fill="url(#linearGradient-2)" xlink:href="#path-3"></use>
                            </g>
                        </g>
                    </g>
                </g>
            </g>
        </g>
    </g>
</svg>