<?xml version="1.0" encoding="UTF-8"?>
<svg width="40px" height="40px" viewBox="0 0 40 40" version="1.1" xmlns="http://www.w3.org/2000/svg" xmlns:xlink="http://www.w3.org/1999/xlink">
    <title>编组</title>
    <g id="#-单SKU画像-✅" stroke="none" stroke-width="1" fill="none" fill-rule="evenodd">
        <g id="单SKU画像" transform="translate(-30.000000, -196.000000)" fill="#666666" fill-rule="nonzero">
            <g id="编组-9" transform="translate(0.000000, 176.000000)">
                <g id="编组" transform="translate(30.000000, 20.000000)">
                    <path d="M11.7948718,36.9230769 L3.58974361,36.9230769 C3.2820513,36.9230769 3.07692308,36.7179487 3.07692308,36.4102564 L3.07692308,28.2051282 C3.07692308,27.3846154 2.35897437,26.6666667 1.53846154,26.6666667 C0.717948702,26.6666667 0,27.3846154 0,28.2051282 L0,36.4102564 C0,38.3589743 1.64102562,40 3.58974361,40 L11.7948718,40 C12.6153846,40 13.3333333,39.2820513 13.3333333,38.4615385 C13.3333333,37.6410256 12.6153846,36.9230769 11.7948718,36.9230769 L11.7948718,36.9230769 Z M38.4615385,26.6666667 C37.6410256,26.6666667 36.9230769,27.3846154 36.9230769,28.2051282 L36.9230769,36.4102564 C36.9230769,36.7179487 36.7179487,36.9230769 36.4102564,36.9230769 L28.2051282,36.9230769 C27.3846154,36.9230769 26.6666667,37.6410256 26.6666667,38.4615385 C26.6666667,39.2820513 27.3846154,40 28.2051282,40 L36.4102564,40 C38.3589743,40 40,38.3589744 40,36.4102564 L40,28.2051282 C40,27.3846154 39.2820513,26.6666667 38.4615385,26.6666667 Z M1.53846154,13.3333333 C2.35897437,13.3333333 3.07692308,12.6153846 3.07692308,11.7948718 L3.07692308,3.58974361 C3.07692308,3.2820513 3.2820513,3.07692308 3.58974361,3.07692308 L11.7948718,3.07692308 C12.6153846,3.07692308 13.3333333,2.35897437 13.3333333,1.53846154 C13.3333333,0.717948702 12.6153846,0 11.7948718,0 L3.58974361,0 C1.64102562,0 0,1.64102562 0,3.58974361 L0,11.7948718 C0,12.6153846 0.717948702,13.3333333 1.53846154,13.3333333 Z M36.4102564,0 L28.2051282,0 C27.3846154,0 26.6666667,0.717948702 26.6666667,1.53846154 C26.6666667,2.35897437 27.3846154,3.07692308 28.2051282,3.07692308 L36.4102564,3.07692308 C36.7179487,3.07692308 36.9230769,3.2820513 36.9230769,3.58974361 L36.9230769,11.7948718 C36.9230769,12.6153846 37.6410256,13.3333333 38.4615385,13.3333333 C39.2820513,13.3333333 40,12.6153846 40,11.7948718 L40,3.58974361 C40,1.64102567 38.3589744,0 36.4102564,0 Z M38.4615385,17.9487179 L1.53846154,17.9487179 C0.717948702,17.9487179 0,18.6666666 0,19.4871795 C0,20.3076923 0.717948702,21.025641 1.53846154,21.025641 L38.4615385,21.025641 C39.2820513,21.025641 40,20.3076923 40,19.4871795 C40,18.6666666 39.2820513,17.9487179 38.4615385,17.9487179 Z" id="形状"></path>
                </g>
            </g>
        </g>
    </g>
</svg>