<?xml version="1.0" encoding="UTF-8"?>
<svg width="48px" height="48px" viewBox="0 0 48 48" version="1.1" xmlns="http://www.w3.org/2000/svg" xmlns:xlink="http://www.w3.org/1999/xlink">
    <title>back_01备份@3x</title>
    <defs>
        <rect id="path-1" x="0" y="0" width="48" height="48"></rect>
    </defs>
    <g id="#-单SKU画像-✅" stroke="none" stroke-width="1" fill="none" fill-rule="evenodd">
        <g id="单SKU画像" transform="translate(-124.000000, -192.000000)">
            <g id="编组-9" transform="translate(0.000000, 176.000000)">
                <g id="编组-7" transform="translate(104.000000, 10.000000)">
                    <g id="back01" transform="translate(20.000000, 6.000000)">
                        <mask id="mask-2" fill="white">
                            <use xlink:href="#path-1"></use>
                        </mask>
                        <use id="back_01" fill="#D8D8D8" opacity="0" xlink:href="#path-1"></use>
                        <g id="编组" mask="url(#mask-2)" fill="#B6B6B6" fill-rule="nonzero">
                            <g transform="translate(9.000000, 9.000000)" id="形状">
                                <path d="M29.7099593,28.0645161 L23.0662749,21.439206 C25.0071265,19.2059553 26.1268486,16.2282879 26.1268486,13.0272953 C26.1268486,5.88089329 20.2296457,0 13.0634243,0 C5.89720293,0 0,5.95533497 0,13.101737 C0,20.2481389 5.89720296,26.1290323 13.0634243,26.1290323 C16.2732943,26.1290323 19.1845717,24.9379653 21.498664,23.0769231 L28.1423484,29.7022333 C28.3662928,29.9255583 28.6648853,30 28.9634779,30 C29.2620704,30 29.560663,29.9255583 29.7846074,29.7022333 C30.0832,29.2555831 30.0832,28.5111663 29.7099593,28.0645161 Z M13.0634243,23.8957816 C7.09157321,23.8957816 2.23944417,19.057072 2.23944417,13.101737 C2.23944417,7.14640195 7.09157321,2.3076923 13.0634243,2.3076923 C19.0352754,2.3076923 23.8874045,7.14640199 23.8874045,13.101737 C23.8874045,19.0570719 19.0352754,23.8957816 13.0634243,23.8957816 Z"></path>
                            </g>
                        </g>
                    </g>
                </g>
            </g>
        </g>
    </g>
</svg>