<?xml version="1.0" encoding="UTF-8"?>
<svg width="110px" height="110px" viewBox="0 0 110 110" version="1.1" xmlns="http://www.w3.org/2000/svg" xmlns:xlink="http://www.w3.org/1999/xlink">
    <title>BG备份 14</title>
    <defs>
        <linearGradient x1="61.0568588%" y1="100%" x2="61.0568588%" y2="0%" id="linearGradient-1">
            <stop stop-color="#2F99FE" offset="0%"></stop>
            <stop stop-color="#49A6FF" offset="100%"></stop>
        </linearGradient>
        <linearGradient x1="50%" y1="0%" x2="50%" y2="100%" id="linearGradient-2">
            <stop stop-color="#FFFFFF" offset="0%"></stop>
            <stop stop-color="#E0F0FF" offset="100%"></stop>
        </linearGradient>
        <path d="M48.952419,51.8555551 L48.952419,56.4611933 C48.952419,60.6394339 45.62687,64.0409509 41.4782552,64.1632612 L41.2469457,64.1666667 L37.5586647,64.1666667 L37.5586647,61.4470878 L41.2469457,61.4470878 C43.9350165,61.4470878 46.1262465,59.3198595 46.2290669,56.6569716 L46.2328402,56.4611933 L46.2328402,51.8555551 L48.952419,51.8555551 Z M2.71957884,53.6797629 L2.71957884,56.4611933 C2.71957884,59.1492641 4.84680716,61.3404941 7.50969504,61.4433146 L7.70547337,61.4470878 L10.1145988,61.4470878 L10.1145988,64.1666667 L7.70547337,64.1666667 C3.52723276,64.1666667 0.125715746,60.8411177 0.0034054543,56.6925028 L0,56.4611933 L0,53.6797629 L2.71957884,53.6797629 Z M38.6256077,20.4938025 C41.2699084,20.4938025 43.4547746,22.6072011 43.6603474,25.2247359 L43.6728642,25.4439963 L43.6728642,53.4950947 C43.6728642,56.1413283 41.5563747,58.3274556 38.9361897,58.4406824 L38.7226704,58.4452886 L10.671572,58.4452886 C8.02533832,58.4452886 5.83921107,56.328799 5.72598431,53.7086141 L5.72137812,53.4950947 L5.72137812,25.4439963 C5.72137812,22.7977627 7.83786764,20.6116354 10.4580526,20.4984087 L10.671572,20.4938025 L38.6256077,20.4938025 Z M38.7226704,23.4056812 L10.671572,23.4056812 C9.55976371,23.4056812 8.71327335,24.2900741 8.6386168,25.299086 L8.63325684,25.4439963 L8.63325684,53.3980321 C8.63325684,54.5098403 9.42921047,55.3563307 10.5146018,55.4309873 L10.671572,55.4363472 L11.9441465,55.4363472 L30.278222,37.3826991 C31.4933023,36.1676189 33.6084421,36.1226159 34.8901934,37.2476902 L35.0342907,37.3826991 L40.7609855,43.1093939 L40.7609855,25.4439963 C40.7609855,24.2792448 39.7903592,23.4056812 38.7226704,23.4056812 Z M18.4365819,28.355875 C21.1543354,28.355875 23.2897131,30.4912528 23.2897131,33.2090063 C23.2897131,35.9267597 21.1543354,38.0621375 18.4365819,38.0621375 C15.8158911,38.0621375 13.5834507,35.9267598 13.5834507,33.2090063 C13.5834507,30.4912528 15.7188284,28.355875 18.4365819,28.355875 Z M59.1194102,0 C61.7637109,0 63.9485771,2.11339863 64.1541499,4.73093345 L64.1666667,4.95019384 L64.1666667,33.0012922 C64.1666667,35.6475259 62.0501771,37.8336531 59.4299922,37.9468799 L59.2164728,37.9514861 L47.5811806,37.951 L47.5813008,23.3693535 C47.5813008,22.3847529 47.3715465,21.4491431 46.9942852,20.6047714 L50.7720245,16.8888966 C51.9871048,15.6738164 54.1022445,15.6288134 55.3839958,16.7538877 L55.5280931,16.8888966 L61.2547879,22.6155915 L61.2547879,4.95019384 C61.2547879,3.78544235 60.2841617,2.91187873 59.2164728,2.91187873 L31.1653744,2.91187873 C30.0535662,2.91187873 29.2070758,3.79627163 29.1324193,4.80528357 L29.1270593,4.95019384 L29.1261806,16.585 L26.2151806,16.585 L26.2151806,4.95019384 C26.2151806,2.3039602 28.3316701,0.117832951 30.9518551,0.00460619397 L31.1653744,0 L59.1194102,0 Z M10.8326956,15.2142476 L10.8326956,17.9338265 L7.70547337,17.9338265 C5.01740256,17.9338265 2.82617254,20.0610548 2.7233521,22.7239427 L2.71957884,22.919721 L2.71957884,26.3087105 L0,26.3087105 L0,22.919721 C0,18.7414804 3.32554901,15.3399634 7.47416388,15.2176531 L7.70547337,15.2142476 L10.8326956,15.2142476 Z M38.0580666,6.11743709 C40.7758201,6.11743709 42.9111978,8.25281485 42.9111978,10.9705683 C42.9111978,13.6883218 40.7758201,15.8236995 38.0580666,15.8236995 C35.4373758,15.8236995 33.2049354,13.6883218 33.2049354,10.9705683 C33.2049354,8.2528148 35.3403132,6.11743709 38.0580666,6.11743709 Z" id="path-3"></path>
        <filter x="-9.4%" y="-9.4%" width="118.7%" height="118.7%" filterUnits="objectBoundingBox" id="filter-4">
            <feOffset dx="0" dy="0" in="SourceAlpha" result="shadowOffsetOuter1"></feOffset>
            <feGaussianBlur stdDeviation="2" in="shadowOffsetOuter1" result="shadowBlurOuter1"></feGaussianBlur>
            <feColorMatrix values="0 0 0 0 0.00363962093   0 0 0 0 0.243357835   0 0 0 0 0.471768587  0 0 0 0.0762862626 0" type="matrix" in="shadowBlurOuter1"></feColorMatrix>
        </filter>
    </defs>
    <g id="#-首页-✅" stroke="none" stroke-width="1" fill="none" fill-rule="evenodd">
        <g id="首页" transform="translate(-320.000000, -1012.000000)">
            <g id="编组-4" transform="translate(24.000000, 458.000000)">
                <g id="编组备份-7" transform="translate(234.000000, 518.000000)">
                    <g id="编组-7" transform="translate(62.000000, 36.000000)">
                        <path d="M25.3918148,3.42490765 C35.2612099,1.14163588 45.1306049,0 55,0 C64.8693942,0 74.7387883,1.14163568 84.6081825,3.42490703 L84.6081828,3.42490571 C95.5251197,5.95052469 104.049473,14.474878 106.575092,25.3918148 C108.858364,35.2612099 110,45.1306049 110,55 C110,64.8693942 108.858364,74.7387883 106.575093,84.6081825 L106.575094,84.6081828 C104.049475,95.5251197 95.525122,104.049473 84.6081852,106.575092 C74.7387901,108.858364 64.8693951,110 55,110 C45.1306058,110 35.2612117,108.858364 25.3918175,106.575093 L25.3918172,106.575094 C14.4748803,104.049475 5.95052683,95.525122 3.42490765,84.6081852 C1.14163588,74.7387901 0,64.8693951 0,55 C0,45.1306058 1.14163568,35.2612117 3.42490703,25.3918175 L3.42490571,25.3918172 C5.95052469,14.4748803 14.474878,5.95052683 25.3918148,3.42490765 Z" id="BG备份-14" fill="url(#linearGradient-1)"></path>
                        <g id="编组-6" transform="translate(22.916667, 22.916667)" fill-rule="nonzero">
                            <g id="形状结合">
                                <use fill="black" fill-opacity="1" filter="url(#filter-4)" xlink:href="#path-3"></use>
                                <use fill="url(#linearGradient-2)" xlink:href="#path-3"></use>
                            </g>
                        </g>
                    </g>
                </g>
            </g>
        </g>
    </g>
</svg>