<?xml version="1.0" encoding="UTF-8"?>
<svg width="110px" height="110px" viewBox="0 0 110 110" version="1.1" xmlns="http://www.w3.org/2000/svg" xmlns:xlink="http://www.w3.org/1999/xlink">
    <title>BG备份 14</title>
    <defs>
        <linearGradient x1="61.0568588%" y1="2.77555756e-15%" x2="61.0568588%" y2="100%" id="linearGradient-1">
            <stop stop-color="#49DCBB" offset="0%"></stop>
            <stop stop-color="#37D7B3" offset="100%"></stop>
        </linearGradient>
        <linearGradient x1="50%" y1="0%" x2="50%" y2="100%" id="linearGradient-2">
            <stop stop-color="#FFFFFF" offset="0%"></stop>
            <stop stop-color="#D3FFF5" offset="100%"></stop>
        </linearGradient>
        <path d="M45.8888889,0 C48.8957725,0 51.3333333,2.45481024 51.3333333,5.48297214 L51.3333333,53.1836945 C51.3333333,56.2118564 48.8957725,58.6666667 45.8888889,58.6666667 L5.44444444,58.6666667 C4.000488,58.6666667 2.61567225,58.088998 1.59464086,57.0607413 C0.573609464,56.0324846 0,54.6378692 0,53.1836945 L0,5.48297214 C0,2.45481024 2.43756081,0 5.44444444,0 L45.8888889,0 Z M45.8888889,4.6996904 L5.44444444,4.6996904 C5.01488964,4.6996904 4.66666667,5.05037758 4.66666667,5.48297214 L4.66666667,54.1431269 L46.6674444,54.1431269 L46.6666667,5.48297214 C46.6666667,5.05037758 46.3184437,4.6996904 45.8888889,4.6996904 Z M35.1076711,27.7918375 L42.0512341,47.330275 C42.1276477,47.5452948 42.1667001,47.7718059 42.1667001,48 C42.1667001,49.1045695 41.2712696,50 40.1667001,50 L40.1667001,50 L33.6500765,50 L32.137053,36.3148058 C32.030709,35.3529314 31.2178628,34.625 30.2501275,34.625 C30.1942316,34.625 30.1383781,34.6280782 30.0828207,34.6342206 C29.2470601,34.7266215 28.644448,35.4790452 28.736849,36.3148058 L28.736849,36.3148058 L30.2498725,50 L21.7501275,50 L23.263151,36.3148058 C23.2692934,36.2592485 23.2723716,36.203395 23.2723716,36.1474991 C23.2723716,35.306646 22.5907255,34.625 21.7498725,34.625 C20.7821372,34.625 19.969291,35.3529314 19.862947,36.3148058 L19.862947,36.3148058 L18.3499235,50 L11.8332999,50 C11.6051058,50 11.3785947,49.9609477 11.1635749,49.884534 C10.1227755,49.5146551 9.57888702,48.3710744 9.94876593,47.330275 L9.94876593,47.330275 L16.8923289,27.7918375 L35.1076711,27.7918375 Z M20.899949,9 C20.899949,11.8295125 23.1827318,14.125 26,14.125 C28.8157382,14.125 31.100051,11.8295125 31.100051,9 L31.100051,9 L35.5733395,9 C35.8640882,9 36.1532927,9.04226623 36.431881,9.12547283 C38.0194386,9.59963221 38.9220261,11.270984 38.4478667,12.8585415 L38.4478667,12.8585415 L35.0082201,24.375 L16.9887199,24.375 L13.5512086,12.8580162 C13.4681054,12.5795887 13.4258926,12.290565 13.4258926,12 C13.4258926,10.3431458 14.7690383,9 16.4258926,9 L16.4258926,9 Z" id="path-3"></path>
        <filter x="-11.7%" y="-10.2%" width="123.4%" height="120.5%" filterUnits="objectBoundingBox" id="filter-4">
            <feOffset dx="0" dy="0" in="SourceAlpha" result="shadowOffsetOuter1"></feOffset>
            <feGaussianBlur stdDeviation="2" in="shadowOffsetOuter1" result="shadowBlurOuter1"></feGaussianBlur>
            <feColorMatrix values="0 0 0 0 0.00363962093   0 0 0 0 0.243357835   0 0 0 0 0.471768587  0 0 0 0.0762862626 0" type="matrix" in="shadowBlurOuter1"></feColorMatrix>
        </filter>
    </defs>
    <g id="#-首页-✅" stroke="none" stroke-width="1" fill="none" fill-rule="evenodd">
        <g id="首页" transform="translate(-320.000000, -788.000000)">
            <g id="编组-4" transform="translate(24.000000, 458.000000)">
                <g id="编组备份-4" transform="translate(234.000000, 294.000000)">
                    <g id="编组-12" transform="translate(62.000000, 36.000000)">
                        <path d="M25.3918148,3.42490765 C35.2612099,1.14163588 45.1306049,0 55,0 C64.8693942,0 74.7387883,1.14163568 84.6081825,3.42490703 L84.6081828,3.42490571 C95.5251197,5.95052469 104.049473,14.474878 106.575092,25.3918148 C108.858364,35.2612099 110,45.1306049 110,55 C110,64.8693942 108.858364,74.7387883 106.575093,84.6081825 L106.575094,84.6081828 C104.049475,95.5251197 95.525122,104.049473 84.6081852,106.575092 C74.7387901,108.858364 64.8693951,110 55,110 C45.1306058,110 35.2612117,108.858364 25.3918175,106.575093 L25.3918172,106.575094 C14.4748803,104.049475 5.95052683,95.525122 3.42490765,84.6081852 C1.14163588,74.7387901 0,64.8693951 0,55 C0,45.1306058 1.14163568,35.2612117 3.42490703,25.3918175 L3.42490571,25.3918172 C5.95052469,14.4748803 14.474878,5.95052683 25.3918148,3.42490765 Z" id="BG备份-14" fill="url(#linearGradient-1)"></path>
                        <g id="编组" transform="translate(29.000000, 26.000000)" fill-rule="nonzero">
                            <g id="形状结合">
                                <use fill="black" fill-opacity="1" filter="url(#filter-4)" xlink:href="#path-3"></use>
                                <use fill="url(#linearGradient-2)" xlink:href="#path-3"></use>
                            </g>
                        </g>
                    </g>
                </g>
            </g>
        </g>
    </g>
</svg>