<?xml version="1.0" encoding="UTF-8"?>
<svg width="110px" height="110px" viewBox="0 0 110 110" version="1.1" xmlns="http://www.w3.org/2000/svg" xmlns:xlink="http://www.w3.org/1999/xlink">
    <title>BG备份 14</title>
    <defs>
        <linearGradient x1="61.0568588%" y1="100%" x2="61.0568588%" y2="0%" id="linearGradient-1">
            <stop stop-color="#FF5973" offset="0%"></stop>
            <stop stop-color="#FF667E" offset="100%"></stop>
        </linearGradient>
        <linearGradient x1="50%" y1="0%" x2="50%" y2="100%" id="linearGradient-2">
            <stop stop-color="#FFFFFF" offset="0%"></stop>
            <stop stop-color="#FFE7EA" offset="100%"></stop>
        </linearGradient>
    </defs>
    <g id="#-首页-✅" stroke="none" stroke-width="1" fill="none" fill-rule="evenodd">
        <g id="首页" transform="translate(-86.000000, -564.000000)">
            <g id="编组-4" transform="translate(24.000000, 458.000000)">
                <g id="编组" transform="translate(0.000000, 70.000000)">
                    <g id="编组-10" transform="translate(62.000000, 36.000000)">
                        <path d="M25.3918148,3.42490765 C35.2612099,1.14163588 45.1306049,0 55,0 C64.8693942,0 74.7387883,1.14163568 84.6081825,3.42490703 L84.6081828,3.42490571 C95.5251197,5.95052469 104.049473,14.474878 106.575092,25.3918148 C108.858364,35.2612099 110,45.1306049 110,55 C110,64.8693942 108.858364,74.7387883 106.575093,84.6081825 L106.575094,84.6081828 C104.049475,95.5251197 95.525122,104.049473 84.6081852,106.575092 C74.7387901,108.858364 64.8693951,110 55,110 C45.1306058,110 35.2612117,108.858364 25.3918175,106.575093 L25.3918172,106.575094 C14.4748803,104.049475 5.95052683,95.525122 3.42490765,84.6081852 C1.14163588,74.7387901 0,64.8693951 0,55 C0,45.1306058 1.14163568,35.2612117 3.42490703,25.3918175 L3.42490571,25.3918172 C5.95052469,14.4748803 14.474878,5.95052683 25.3918148,3.42490765 Z" id="BG备份-14" fill="url(#linearGradient-1)"></path>
                        <g id="编组" transform="translate(28.416667, 24.750000)" fill="url(#linearGradient-2)" fill-rule="nonzero">
                            <path d="M44.9871795,0 C49.5045855,0 53.1666667,3.66629044 53.1666667,8.18888889 L53.1666667,8.18888889 L53.1666667,52.3111111 C53.1666667,56.8337096 49.5045855,60.5 44.9871795,60.5 L44.9871795,60.5 L8.17948718,60.5 C3.66208115,60.5 0,56.8337096 0,52.3111111 L0,52.3111111 L0,8.18888889 C0,3.66629044 3.66208115,0 8.17948718,0 L8.17948718,0 Z M40.8974359,45.0388889 L12.2692308,45.0388889 C11.1398793,45.0388889 10.224359,45.9554615 10.224359,47.0861111 C10.224359,48.2167607 11.1398793,49.1333333 12.2692308,49.1333333 L40.8974359,49.1333333 C42.0267874,49.1333333 42.9423077,48.2167607 42.9423077,47.0861111 C42.9423077,45.9554615 42.0267874,45.0388889 40.8974359,45.0388889 Z M40.8974359,34.8027778 L12.2692308,34.8027778 C11.1398793,34.8027778 10.224359,35.7193504 10.224359,36.85 C10.224359,37.9806496 11.1398793,38.8972222 12.2692308,38.8972222 L40.8974359,38.8972222 C42.0267874,38.8972222 42.9423077,37.9806496 42.9423077,36.85 C42.9423077,35.7193504 42.0267874,34.8027778 40.8974359,34.8027778 Z M40.8974359,10.2361111 C38.6387329,10.2361111 36.8076923,12.0692563 36.8076923,14.3305556 C36.8076923,14.5442856 36.8489169,14.7432756 36.9004477,14.9390228 L37.0080897,15.3296 L37.0080897,15.3296 L31.6709744,20.67285 C31.3437949,20.5868667 31.0288846,20.4722222 30.6730769,20.4722222 C30.3786154,20.4722222 30.1168718,20.5786778 29.842859,20.6400944 L26.4156538,17.20895 C26.477,16.9346222 26.5833333,16.6725778 26.5833333,16.3777778 C26.5833333,14.1164786 24.7522928,12.2833333 22.4935897,12.2833333 C20.2348867,12.2833333 18.4038462,14.1164786 18.4038462,16.3777778 C18.4038462,16.5915078 18.4450708,16.7904978 18.4966015,16.986245 L18.6042436,17.3768222 L18.6042436,17.3768222 L13.2671282,22.7200722 C12.9399487,22.6340889 12.6250385,22.5194444 12.2692308,22.5194444 C10.0105278,22.5194444 8.17948718,24.3525897 8.17948718,26.6138889 C8.17948718,28.8751881 10.0105278,30.7083333 12.2692308,30.7083333 C14.5279338,30.7083333 16.3589744,28.8751881 16.3589744,26.6138889 C16.3589744,26.2576722 16.2444615,25.9424 16.1585769,25.6148444 L21.4956923,20.2715944 L21.8858211,20.3793602 C22.0813436,20.4309502 22.2801051,20.4722222 22.4935897,20.4722222 C22.8289487,20.4722222 23.1234103,20.3575778 23.4342308,20.2797833 L26.7755513,23.6249444 C26.6978462,23.9361222 26.5833333,24.2309222 26.5833333,24.5666667 C26.5833333,26.8279659 28.4143739,28.6611111 30.6730769,28.6611111 C32.9317799,28.6611111 34.7628205,26.8279659 34.7628205,24.5666667 C34.7628205,24.21045 34.6483077,23.8951778 34.5624231,23.5676222 L39.8995385,18.2243722 L40.2896673,18.332138 C40.4851897,18.383728 40.6839513,18.425 40.8974359,18.425 C43.1561389,18.425 44.9871795,16.5918548 44.9871795,14.3305556 C44.9871795,12.0692563 43.1561389,10.2361111 40.8974359,10.2361111 Z" id="形状结合"></path>
                        </g>
                    </g>
                </g>
            </g>
        </g>
    </g>
</svg>