<?xml version="1.0" encoding="UTF-8"?>
<svg width="110px" height="110px" viewBox="0 0 110 110" version="1.1" xmlns="http://www.w3.org/2000/svg" xmlns:xlink="http://www.w3.org/1999/xlink">
    <title>BG备份 14</title>
    <defs>
        <linearGradient x1="61.0568588%" y1="100%" x2="61.0568588%" y2="0%" id="linearGradient-1">
            <stop stop-color="#FF5973" offset="0%"></stop>
            <stop stop-color="#FF667E" offset="100%"></stop>
        </linearGradient>
        <linearGradient x1="50%" y1="0%" x2="50%" y2="100%" id="linearGradient-2">
            <stop stop-color="#FFFFFF" offset="0%"></stop>
            <stop stop-color="#FFE7EA" offset="100%"></stop>
        </linearGradient>
    </defs>
    <g id="#-首页-✅" stroke="none" stroke-width="1" fill="none" fill-rule="evenodd">
        <g id="首页" transform="translate(-86.000000, -788.000000)">
            <g id="编组-4" transform="translate(24.000000, 458.000000)">
                <g id="编组备份-5" transform="translate(0.000000, 294.000000)">
                    <g id="编组-11" transform="translate(62.000000, 36.000000)">
                        <path d="M25.3918148,3.42490765 C35.2612099,1.14163588 45.1306049,0 55,0 C64.8693942,0 74.7387883,1.14163568 84.6081825,3.42490703 L84.6081828,3.42490571 C95.5251197,5.95052469 104.049473,14.474878 106.575092,25.3918148 C108.858364,35.2612099 110,45.1306049 110,55 C110,64.8693942 108.858364,74.7387883 106.575093,84.6081825 L106.575094,84.6081828 C104.049475,95.5251197 95.525122,104.049473 84.6081852,106.575092 C74.7387901,108.858364 64.8693951,110 55,110 C45.1306058,110 35.2612117,108.858364 25.3918175,106.575093 L25.3918172,106.575094 C14.4748803,104.049475 5.95052683,95.525122 3.42490765,84.6081852 C1.14163588,74.7387901 0,64.8693951 0,55 C0,45.1306058 1.14163568,35.2612117 3.42490703,25.3918175 L3.42490571,25.3918172 C5.95052469,14.4748803 14.474878,5.95052683 25.3918148,3.42490765 Z" id="BG备份-14" fill="url(#linearGradient-1)"></path>
                        <path d="M48.1146966,22.938292 C48.7472532,20.9247781 49.7387487,20.351588 52.469039,22.2181301 C62.5870006,29.1434421 68.7536908,37.5355328 70.9720516,47.4090993 C71.3368749,49.0316682 72.8873738,49.0551837 73.2904447,47.4090993 C73.8759273,45.0399137 74.155429,42.6060604 74.1260077,40.1663283 C74.0995286,38.1792693 75.6735645,38.1792693 76.7386131,39.625472 C94.5355162,68.0498213 77.4360173,88.5347529 62.4190041,89.814865 C60.3461752,89.9915615 60.1855485,88.8925029 59.4886494,86.8548526 C57.3755172,80.6763047 55.4405796,77.4921507 53.5898619,76.3340128 C51.7114379,75.158537 51.0478674,75.4755783 51.0478674,77.4921507 C51.0478674,84.7251143 47.7232178,87.126763 45.949294,88.5347529 C44.73555,89.4981198 43.3984732,90.2484443 41.6537942,89.3225219 C20.4028384,78.0409653 22.2357811,55.0986648 36.0667022,40.8570958 C44.0839879,32.6119769 47.0319953,26.3950691 48.1146966,22.938292 Z M54.0616031,56.25353 C52.85902,56.25353 51.7750402,56.5132722 50.8096639,57.0327566 C49.8442875,57.5522409 49.0885358,58.2679135 48.5424086,59.1797744 C47.9962814,60.0916352 47.7232178,61.1167879 47.7232178,62.2552323 C47.7232178,63.3936768 47.9962814,64.4188294 48.5424086,65.3306903 C49.0885358,66.2425511 49.8442875,66.9582238 50.8096639,67.4777081 C51.7750402,67.9971925 52.85902,68.2569347 54.0616031,68.2569347 C55.2641862,68.2569347 56.3454077,67.9971925 57.3052676,67.4777081 C58.2651275,66.9582238 59.0208793,66.2425511 59.5725229,65.3306903 C60.1241666,64.4188294 60.3999884,63.3936768 60.3999884,62.2552323 C60.3999884,61.1167879 60.1241666,60.0916352 59.5725229,59.1797744 C59.0208793,58.2679135 58.2651275,57.5522409 57.3052676,57.0327566 C56.3454077,56.5132722 55.2641862,56.25353 54.0616031,56.25353 Z M47.1770906,56.4524815 L37.0820122,56.4524815 L37.0820122,58.6409475 L40.7890574,58.6409475 L40.7890574,68.0579832 L43.4700454,68.0579832 L43.4700454,58.6409475 L47.1770906,58.6409475 L47.1770906,56.4524815 Z M67.4334447,56.4524815 L62.4190041,56.4524815 L62.4190041,68.0579832 L65.0999921,68.0579832 L65.0999921,64.8581806 L67.4334447,64.8581806 C68.4595018,64.8581806 69.3504063,64.6896245 70.106158,64.3525123 C70.8619098,64.0154001 71.4438939,63.5290743 71.8521101,62.8935349 C72.2603264,62.2579955 72.4644346,61.5146908 72.4644346,60.6636207 C72.4644346,59.8014977 72.2603264,59.0554297 71.8521101,58.4254168 C71.4438939,57.7954038 70.8619098,57.309078 70.106158,56.9664394 C69.3504063,56.6238008 68.4595018,56.4524815 67.4334447,56.4524815 L67.4334447,56.4524815 Z M54.0616031,58.5414718 C54.7456412,58.5414718 55.3634821,58.698975 55.9151257,59.0139815 C56.4667693,59.328988 56.8998096,59.7683391 57.2142464,60.3320349 C57.5286833,60.8957307 57.6859017,61.5367965 57.6859017,62.2552323 C57.6859017,62.9736682 57.5286833,63.614734 57.2142464,64.1784298 C56.8998096,64.7421256 56.4667693,65.1814767 55.9151257,65.4964832 C55.3634821,65.8114897 54.7456412,65.9689929 54.0616031,65.9689929 C53.377565,65.9689929 52.7597241,65.8114897 52.2080805,65.4964832 C51.6564369,65.1814767 51.2233966,64.7421256 50.9089597,64.1784298 C50.5945229,63.614734 50.4373044,62.9736682 50.4373044,62.2552323 C50.4373044,61.5367965 50.5945229,60.8957307 50.9089597,60.3320349 C51.2233966,59.7683391 51.6564369,59.328988 52.2080805,59.0139815 C52.7597241,58.698975 53.377565,58.5414718 54.0616031,58.5414718 Z M67.2845009,58.6409475 C68.0899006,58.6409475 68.702225,58.81503 69.1214742,59.1631951 C69.5407233,59.5113601 69.7503479,60.011502 69.7503479,60.6636207 C69.7503479,61.3046865 69.5407233,61.7993019 69.1214742,62.147467 C68.702225,62.495632 68.0899006,62.6697145 67.2845009,62.6697145 L67.2845009,62.6697145 L65.0999921,62.6697145 L65.0999921,58.6409475 Z" id="形状结合" fill="url(#linearGradient-2)" fill-rule="nonzero"></path>
                    </g>
                </g>
            </g>
        </g>
    </g>
</svg>