<svg xmlns="http://www.w3.org/2000/svg" xmlns:xlink="http://www.w3.org/1999/xlink" viewBox="0 0 48 48" class="design-iconfont">
  <defs>
    <path id="o355mckcq__p56iji8dla" d="M0 0H48V48H0z"/>
  </defs>
  <g fill="none" fill-rule="evenodd">
    <mask id="o355mckcq__korq5rdf8b" fill="#fff">
      <use xlink:href="#o355mckcq__p56iji8dla"/>
    </mask>
    <g mask="url(#o355mckcq__korq5rdf8b)" fill="#666" fill-rule="nonzero">
      <path d="M32.9496023,0.733153653 C32.3863612,0.274932614 31.6353731,0 30.7905116,0 L3.28557289,0 C1.5019762,0 0,1.46630731 0,3.20754718 C0,3.94070084 0.281620533,4.67385445 0.750988101,5.31536391 L12.0158094,18.328841 L12.0158094,29.1428571 C12.0158094,29.6927224 12.2974299,30.1509434 12.7667975,30.3342318 L19.9011843,33.8167116 C20.0889313,33.9083558 20.2766783,34 20.5582989,34 C20.8399194,34 21.0276664,33.9083558 21.309287,33.8167116 C21.684781,33.541779 21.9664015,33.0835579 21.9664015,32.6253369 L21.9664015,18.2371968 L33.2312228,5.22371967 C33.7944639,4.58221025 34.0760844,3.75741241 33.9822109,2.93261457 C34.0760844,2.10781673 33.7005904,1.28301888 32.9496023,0.733153653 Z M31.2598791,3.4824798 L19.6195638,16.8625337 C19.4318167,17.1374663 19.2440698,17.4123989 19.2440698,17.7789757 L19.2440698,30.3342318 L14.9258882,28.2264151 L14.9258882,17.7789757 C14.9258882,17.4123989 14.8320147,17.1374663 14.5503942,16.8625337 L2.91007887,3.4824798 C2.91007887,3.39083561 2.81620533,3.29919137 2.81620533,3.20754718 C2.81620533,2.93261457 3.00395236,2.74932614 3.28557289,2.74932614 L30.7905116,2.74932614 C30.8843851,2.74932614 30.9782586,2.74932614 31.0721321,2.84097038 C31.1660056,2.93261457 31.2598792,3.11590299 31.2598791,3.11590299 C31.3537526,3.20754718 31.3537526,3.39083561 31.2598791,3.4824798 Z" transform="translate(7 7)"/>
    </g>
  </g>
</svg>
